<svg width="512" height="512" viewBox="0 0 512 512" fill="none" xmlns="http://www.w3.org/2000/svg">
  <!-- Background Circle -->
  <circle cx="256" cy="256" r="248" fill="#F8F9FA" stroke="#3F51B5" stroke-width="16"/>
  
  <!-- Document Icon -->
  <path d="M160 128C160 119.163 167.163 112 176 112H336C344.837 112 352 119.163 352 128V384C352 392.837 344.837 400 336 400H176C167.163 400 160 392.837 160 384V128Z" fill="white" stroke="#3F51B5" stroke-width="12"/>
  
  <!-- Document Lines -->
  <line x1="192" y1="160" x2="320" y2="160" stroke="#3F51B5" stroke-width="8" stroke-linecap="round"/>
  <line x1="192" y1="192" x2="320" y2="192" stroke="#3F51B5" stroke-width="8" stroke-linecap="round"/>
  <line x1="192" y1="224" x2="320" y2="224" stroke="#3F51B5" stroke-width="8" stroke-linecap="round"/>
  <line x1="192" y1="256" x2="280" y2="256" stroke="#3F51B5" stroke-width="8" stroke-linecap="round"/>
  
  <!-- Checkmark -->
  <path d="M224 320L248 344L288 304" stroke="#4CAF50" stroke-width="12" stroke-linecap="round" stroke-linejoin="round"/>
  
  <!-- CV Text -->
  <path d="M208 352H232C236.418 352 240 355.582 240 360V360C240 364.418 236.418 368 232 368H208C203.582 368 200 364.418 200 360V360C200 355.582 203.582 352 208 352Z" fill="#3F51B5"/>
  <path d="M272 352H296C300.418 352 304 355.582 304 360V360C304 364.418 300.418 368 296 368H272C267.582 368 264 364.418 264 360V360C264 355.582 267.582 352 272 352Z" fill="#3F51B5"/>
</svg> 